<svg height="512" viewBox="0 0 60 60" width="512" xmlns="http://www.w3.org/2000/svg"><g id="Page-1" fill="none" fill-rule="evenodd"><g id="059---Wind-Measure" fill-rule="nonzero" transform="translate(0 -1)"><rect id="Rectangle-path" fill="#02a9f4" height="26" rx="2" width="8" x="13" y="34"/><path id="Shape" d="m19 34h-3c1.1045695 0 2 .8954305 2 2v22c0 1.1045695-.8954305 2-2 2h3c1.1045695 0 2-.8954305 2-2v-22c0-1.1045695-.8954305-2-2-2z" fill="#0377bc"/><circle id="Oval" cx="17" cy="4" fill="#f44335" r="2"/><path id="Shape" d="m15 34v-3c0-.5522847.4477153-1 1-1h2c.5522847 0 1 .4477153 1 1v3z" fill="#607d8b"/><rect id="Rectangle-path" fill="#ff5722" height="20" rx="2" width="4" x="22" y="8"/><path id="Shape" d="m26 25h15.509c.3096756.0001953.6017883.1438513.791.389l11.112 14.39c.9615418 1.2571196 2.7136581 1.5919627 4.071.778h.007c1.450333-.8708411 1.9389738-2.7410027 1.1-4.21l-14.302-24.847c-.1786283-.3093932-.5087435-.4999909-.866-.5h-17.422z" fill="#ff9801"/><path id="Shape" d="m58.59 36.343-14.302-24.843c-.1786283-.3093932-.5087435-.4999909-.866-.5h-3c.3572565.0000091.6873717.1906068.866.5l14.3 24.842c.8389738 1.4689973.350333 3.3391589-1.1 4.21h-.007c-.032.019-.067.029-.1.047.9675205.5392936 2.1492732.5213767 3.1-.047h.007c1.4504653-.8701331 1.9399583-2.7397121 1.102-4.209z" fill="#f57c00"/><path id="Shape" d="m10 17h-9c-.55228475 0-1-.4477153-1-1s.44771525-1 1-1h9c1.0168596-.0007626 1.871284-.7644089 1.9857811-1.774802.1144971-1.0103932-.5473843-1.9458662-1.5382887-2.1741474-.99090451-.2282811-1.99536935.3233048-2.3344924 1.2819494-.10781967.3510583-.39938811.6147726-.75947387.6869198-.36008576.0721473-.73074556-.0588821-.96549009-.3413038-.23474452-.2824216-.2957998-.6707896-.15903604-1.011616.67792439-1.91799913 2.68742857-3.02169949 4.6697384-2.56480777 1.9823097.45689172 3.3059739 2.32883577 3.0759654 4.35007257s-1.9404221 3.5479152-3.9747038 3.5477352z" fill="#7f8e94"/><path id="Shape" d="m10 27h-9c-.55228475 0-1-.4477153-1-1s.44771525-1 1-1h9c1.0168596-.0007626 1.871284-.7644089 1.9857811-1.774802.1144971-1.0103932-.5473843-1.9458662-1.5382887-2.1741474-.99090451-.2282811-1.99536935.3233048-2.3344924 1.2819494-.10781967.3510583-.39938811.6147726-.75947387.6869198-.36008576.0721473-.73074556-.0588821-.96549009-.3413038-.23474452-.2824216-.2957998-.6707896-.15903604-1.011616.67792439-1.9179991 2.68742857-3.0216995 4.6697384-2.5648078 1.9823097.4568918 3.3059739 2.3288358 3.0759654 4.3500726s-1.9404221 3.5479152-3.9747038 3.5477352z" fill="#7f8e94"/><path id="Shape" d="m43.85 11.1-1.91 14c-.1329095-.0682401-.2806182-.102591-.43-.1h-7.51v-14.0001364l9.42.0001364c.1493818-.002591.2970905.0317599.43.1z" fill="#f5f5f5"/><path id="Shape" d="m57.73 34.85-5.37 3.57-5.95-7.71 6.33-4.53z" fill="#f5f5f5"/><path id="Shape" d="m52.74 26.18-2.125 1.521 4.115 7.149-3.387 2.252 1.017 1.318 5.37-3.57z" fill="#cfd8dc"/><path id="Shape" d="m14 31v2.184c-1.1943509.4222546-1.9947486 1.5492146-2 2.816v22c0 1.6568542 1.3431458 3 3 3h4c1.6568542 0 3-1.3431458 3-3v-22c-.0052514-1.2667854-.8056491-2.3937454-2-2.816v-2.184c0-1.1045695-.8954305-2-2-2v-4.18l3-.6v1.78c0 1.6568542 1.3431458 3 3 3s3-1.3431458 3-3h14.509l11.109 14.387c1.3161738 1.7193459 3.7397894 2.1241927 5.5433211.9259704 1.8035317-1.1982224 2.369583-3.5893309 1.2946789-5.4689704l-14.301-24.844c-.3574351-.6190959-1.0181297-1.00033923-1.733-1h-16.422c0-1.65685425-1.3431458-3-3-3s-3 1.34314575-3 3v1.78l-3-.6v-4.364c1.3775467-.4870363 2.2038721-1.89566623 1.9567957-3.33573306s-1.4956868-2.49269406-2.9567957-2.49269406-2.7097193 1.05262723-2.9567957 2.49269406.579249 2.84869676 1.9567957 3.33573306v22.184c-1.1045695 0-2 .8954305-2 2zm27.081-7h-6.081v-12h7.717zm6.754 6.92 4.589-3.284 3.972 6.9-3.813 2.534zm9.134 8.78c-.9226656.5533522-2.1138318.3246793-2.766-.531l-.394-.51 3.591-2.386.326.566c.5629108 1.0014554.2275312 2.2689866-.757 2.861zm-5.548-13.8-4.81 3.442-3.518-4.557c-.026-.033-.06-.058-.087-.089l1.479-10.844zm-18.421-13.9v12h-6v-12zm-10-2c0-.55228475.4477153-1 1-1s1 .44771525 1 1v16c0 .5522847-.4477153 1-1 1s-1-.4477153-1-1zm-2 3.82v8.36l-3 .6v-9.56zm-4-10.82c.5522847 0 1 .44771525 1 1s-.4477153 1-1 1-1-.44771525-1-1 .4477153-1 1-1zm1 28v2h-2v-2zm2 27c0 .5522847-.4477153 1-1 1h-4c-.5522847 0-1-.4477153-1-1v-22c0-.5522847.4477153-1 1-1h4c.5522847 0 1 .4477153 1 1z" fill="#000"/></g></g></svg>